<?xml version="1.0" encoding="UTF-8" standalone="no"?>
<svg
   version="1.1"
   id="picnic-site"
   width="15"
   height="15"
   viewBox="0 0 15 15"
   sodipodi:docname="picnic-site.svg"
   inkscape:export-filename="picnic-site.png"
   inkscape:export-xdpi="96"
   inkscape:export-ydpi="96"
   inkscape:version="1.3.2 (091e20e, 2023-11-25, custom)"
   xmlns:inkscape="http://www.inkscape.org/namespaces/inkscape"
   xmlns:sodipodi="http://sodipodi.sourceforge.net/DTD/sodipodi-0.dtd"
   xmlns="http://www.w3.org/2000/svg"
   xmlns:svg="http://www.w3.org/2000/svg">
  <defs
     id="defs1" />
  <sodipodi:namedview
     id="namedview1"
     pagecolor="#505050"
     bordercolor="#ffffff"
     borderopacity="1"
     inkscape:showpageshadow="0"
     inkscape:pageopacity="0"
     inkscape:pagecheckerboard="1"
     inkscape:deskcolor="#d1d1d1"
     inkscape:zoom="78.733333"
     inkscape:cx="7.5"
     inkscape:cy="7.5"
     inkscape:window-width="2560"
     inkscape:window-height="1377"
     inkscape:window-x="-8"
     inkscape:window-y="-8"
     inkscape:window-maximized="1"
     inkscape:current-layer="picnic-site" />
  <path
     id="rect4760"
     d="M4,3C3.446,3,3,3.446,3,4s0.446,1,1,1h1.2969&#10;	L4.6523,7H2.5c-0.554,0-1,0.446-1,1s0.446,1,1,1h1.5098L3.041,12.0098c-0.1284,0.3939,0.0868,0.8173,0.4807,0.9457&#10;	s0.8173-0.0868,0.9457-0.4807c0.0005-0.0013,0.0009-0.0027,0.0013-0.004L5.5859,9h3.8281l1.1172,3.4707&#10;	c0.1273,0.3943,0.5501,0.6107,0.9443,0.4834s0.6107-0.5501,0.4834-0.9443l0,0L10.9902,9H12.5c0.554,0,1-0.446,1-1s-0.446-1-1-1&#10;	h-2.1523L9.7031,5H11c0.554,0,1-0.446,1-1s-0.446-1-1-1H4z M6.873,5H8.127l0.6445,2h-2.543L6.873,5z"
     style="fill:#420a11;fill-opacity:1;stroke:#ffffff;stroke-opacity:0.60000002;stroke-width:2;stroke-dasharray:none;paint-order:stroke fill markers" />
</svg>
